<svg id="Layer_1" data-name="Layer 1" xmlns="http://www.w3.org/2000/svg" viewBox="0 0 278 106.43"><defs><style>.cls-1{fill:#b100e8;}.cls-1,.cls-2,.cls-3,.cls-4{stroke:#fff;stroke-miterlimit:10;}.cls-2{fill:#2d00f7;}.cls-3{fill:#f20089;}.cls-4{fill:#050001;}.cls-5{fill:#fff;}.cls-6{font-size:72px;font-family:Roboto-BlackItalic, Roboto;font-weight:800;font-style:italic;}.cls-7{letter-spacing:-0.05em;}</style></defs><title>logo</title><path class="cls-1" d="M51.93,1.72A49.82,49.82,0,0,1,77.55,8.77l-25.37,44H1.69c0-.17,0-.33,0-.5A50.38,50.38,0,0,1,51.93,1.72Z"/><path class="cls-1" d="M52.46,53.23H1.21l0-.47c0-.19,0-.35,0-.53A50.72,50.72,0,0,1,77.8,8.35l.42.25L78,9Zm-50.29-1H51.89L76.86,9A49.73,49.73,0,0,0,2.17,52.23Z"/><path class="cls-2" d="M1.69,52.72H52.18l24.94,43.2a49.75,49.75,0,0,1-25.19,6.8A50.37,50.37,0,0,1,1.69,52.72Z"/><path class="cls-2" d="M51.93,103.23A51,51,0,0,1,1.19,52.73v-.5H52.46l.15.25L77.8,96.11l-.43.25A50.51,50.51,0,0,1,51.93,103.23Zm-49.74-50a50,50,0,0,0,49.74,49,49.48,49.48,0,0,0,24.5-6.49L51.89,53.23Z"/><path class="cls-3" d="M77.55,8.77a50.64,50.64,0,0,1-.43,87.15L52.18,52.72Z"/><path class="cls-4" d="M76.93,96.61,51.6,52.73,77.36,8.09l.44.26a51.13,51.13,0,0,1-.43,88ZM52.75,52.73,77.3,95.24a50.13,50.13,0,0,0,.42-85.77Z"/><polygon class="cls-5" points="57.87 65.64 48.44 88.21 31.34 33.21 86.86 46 66.35 57.96 105.56 96.72 98.54 103.61 57.87 65.64"/><path d="M32.07,33.89,85.52,46.21l-18.86,11-1.13.66.93.91,38.39,37.95-6.32,6.2L58.73,65.77l-1-1-.55,1.32L51.2,80.32l-2.69,6.43L32.07,33.89M30.6,32.52,48.38,89.67,58.05,66.5l40.5,37.8,7.73-7.58L67.16,58.06l21-12.26L30.6,32.52Z"/><path class="cls-5" d="M106.27,96.72,73.63,64.46l32.64,32.27-7.72,7.57ZM41.88,68.78l6.5,20.89ZM58.05,66.5l-3.21,7.7ZM88.2,45.8,77.58,52Z"/><path d="M29.86,31.84l18.45,59.3,9.93-23.78L98.56,105,107,96.73,68,58.17,89.54,45.6,29.86,31.84ZM48.44,88.21l-17.1-55L86.86,46,66.35,58l39.21,38.76-7,6.89-40.67-38L48.44,88.21Z"/><text class="cls-6" transform="translate(106.28 77.72) scale(1.21 1)"><tspan class="cls-7">L</tspan><tspan x="34.95" y="0">WS</tspan></text></svg>